<?xml version="1.0" standalone="no"?>
<!DOCTYPE svg PUBLIC "-//W3C//DTD SVG 20010904//EN"
 "http://www.w3.org/TR/2001/REC-SVG-20010904/DTD/svg10.dtd">
<svg version="1.0" xmlns="http://www.w3.org/2000/svg"
 width="700.000000pt" height="700.000000pt" viewBox="0 0 700.000000 700.000000"
 preserveAspectRatio="xMidYMid meet">
<metadata>
Created by potrace 1.14, written by Peter Selinger 2001-2017
</metadata>
<g transform="translate(0.000000,700.000000) scale(0.100000,-0.100000)"
fill="#000000" stroke="none">
<path d="M3040 6934 c-47 -7 -105 -15 -129 -19 -25 -3 -47 -8 -50 -10 -3 -1
-23 -6 -43 -9 -21 -3 -59 -11 -85 -17 -27 -6 -56 -12 -65 -14 -9 -2 -52 -13
-94 -25 -345 -97 -682 -250 -974 -443 -79 -52 -172 -117 -180 -127 -3 -3 -21
-17 -40 -30 -19 -14 -83 -66 -142 -117 -475 -410 -821 -925 -1026 -1528 -34
-100 -86 -291 -102 -375 -22 -113 -40 -218 -45 -270 -4 -30 -8 -61 -10 -67 -3
-7 -3 -13 -1 -13 3 0 53 64 112 143 151 200 183 237 204 237 17 0 58 -47 150
-170 14 -18 49 -65 79 -103 29 -39 62 -84 72 -101 19 -31 19 -31 20 -6 0 14 2
32 4 40 1 8 6 33 9 55 10 66 37 198 46 230 58 195 79 258 122 365 72 182 175
375 291 545 160 234 375 461 610 641 396 306 893 510 1377 567 50 6 65 16 245
152 192 145 195 148 188 174 -4 18 -325 270 -380 300 -25 13 -42 12 -163 -5z"/>
<path d="M3865 6943 c6 -5 90 -69 188 -143 97 -73 182 -139 188 -146 21 -26
-4 -53 -153 -165 -83 -63 -156 -119 -162 -124 -6 -6 -26 -20 -45 -32 l-35 -21
50 -7 c27 -4 63 -9 79 -11 48 -8 217 -44 250 -55 17 -5 71 -21 120 -35 184
-55 423 -162 599 -267 587 -352 1023 -890 1240 -1530 58 -170 125 -471 126
-561 1 -17 6 -40 13 -51 29 -50 281 -374 294 -379 8 -3 22 -2 32 3 10 6 81 94
159 197 112 148 142 193 142 218 0 56 -40 303 -70 433 -268 1177 -1135 2137
-2273 2518 -130 44 -374 108 -452 120 -22 3 -47 7 -55 10 -15 4 -48 9 -135 20
-27 3 -63 9 -80 12 -19 3 -26 2 -20 -4z"/>
<path d="M1830 3500 l0 -2090 1670 0 1670 0 0 1544 0 1543 -532 1 c-293 0
-539 1 -545 1 -10 1 -13 117 -13 546 l0 545 -1125 0 -1125 0 0 -2090z"/>
<path d="M4154 5075 l0 -505 510 0 510 0 -505 505 c-277 278 -507 505 -510
505 -3 0 -5 -227 -5 -505z"/>
<path d="M316 3547 c-18 -23 -86 -111 -150 -196 -83 -111 -116 -163 -116 -183
0 -41 29 -240 50 -348 76 -374 219 -749 411 -1076 226 -384 553 -750 914
-1021 446 -335 992 -564 1540 -647 142 -21 178 -25 169 -17 -5 4 -89 67 -187
141 -97 73 -182 139 -188 146 -6 7 -8 21 -5 32 6 17 186 160 338 268 l58 41
-108 18 c-303 49 -621 158 -895 307 -105 57 -289 175 -348 222 -14 12 -43 35
-65 51 -73 56 -209 182 -290 267 -301 319 -527 704 -649 1110 -14 46 -29 97
-34 113 -16 50 -59 266 -66 330 -9 78 -12 92 -22 108 -12 20 -246 330 -264
350 -30 33 -56 29 -93 -16z"/>
<path d="M6309 3127 c-1 -15 -2 -30 -3 -34 -1 -5 -6 -33 -11 -63 -5 -30 -9
-57 -10 -60 -1 -3 -5 -23 -9 -45 -23 -119 -98 -371 -141 -470 -7 -16 -23 -55
-35 -85 -21 -53 -117 -240 -156 -307 -64 -107 -85 -139 -161 -241 -450 -608
-1085 -995 -1837 -1121 -65 -11 -122 -18 -127 -16 -6 4 -255 -178 -370 -270
-39 -31 -43 -53 -14 -79 37 -34 336 -261 363 -275 31 -17 221 6 442 54 145 31
415 111 505 150 17 7 75 32 130 55 786 329 1470 1013 1808 1810 102 240 190
531 223 730 18 116 40 270 38 270 -2 0 -64 -80 -137 -177 -145 -193 -157 -206
-184 -201 -16 3 -207 244 -283 357 -29 42 -30 43 -31 18z"/>
</g>
</svg>
